<mxfile host="app.diagrams.net" agent="Mozilla/5.0 (Windows NT 10.0; Win64; x64) AppleWebKit/537.36 (KHTML, like Gecko) Chrome/128.0.0.0 Safari/537.36" version="24.7.14">
  <diagram name="PÃ¡gina-1" id="J8Z5lp1VmRW86wyL4nMW">
    <mxGraphModel dx="1308" dy="738" grid="1" gridSize="10" guides="1" tooltips="1" connect="1" arrows="1" fold="1" page="1" pageScale="1" pageWidth="1169" pageHeight="827" math="0" shadow="0">
      <root>
        <mxCell id="0" />
        <mxCell id="1" parent="0" />
        <mxCell id="l32DUwEVO_m3kCCiZF5s-24" style="edgeStyle=orthogonalEdgeStyle;rounded=0;orthogonalLoop=1;jettySize=auto;html=1;entryX=0;entryY=0.5;entryDx=0;entryDy=0;" edge="1" parent="1" source="l32DUwEVO_m3kCCiZF5s-1" target="l32DUwEVO_m3kCCiZF5s-4">
          <mxGeometry relative="1" as="geometry" />
        </mxCell>
        <mxCell id="l32DUwEVO_m3kCCiZF5s-26" style="edgeStyle=orthogonalEdgeStyle;rounded=0;orthogonalLoop=1;jettySize=auto;html=1;" edge="1" parent="1" target="l32DUwEVO_m3kCCiZF5s-5">
          <mxGeometry relative="1" as="geometry">
            <mxPoint x="150" y="200" as="sourcePoint" />
            <Array as="points">
              <mxPoint x="150" y="250" />
            </Array>
          </mxGeometry>
        </mxCell>
        <mxCell id="l32DUwEVO_m3kCCiZF5s-28" style="edgeStyle=orthogonalEdgeStyle;rounded=0;orthogonalLoop=1;jettySize=auto;html=1;entryX=0;entryY=0.5;entryDx=0;entryDy=0;" edge="1" parent="1" target="l32DUwEVO_m3kCCiZF5s-6">
          <mxGeometry relative="1" as="geometry">
            <mxPoint x="130" y="150" as="sourcePoint" />
            <Array as="points">
              <mxPoint x="130" y="355" />
            </Array>
          </mxGeometry>
        </mxCell>
        <mxCell id="l32DUwEVO_m3kCCiZF5s-1" value="Costumer" style="shape=umlActor;verticalLabelPosition=bottom;verticalAlign=top;html=1;outlineConnect=0;" vertex="1" parent="1">
          <mxGeometry x="140" y="115" width="30" height="60" as="geometry" />
        </mxCell>
        <mxCell id="l32DUwEVO_m3kCCiZF5s-4" value="Log in" style="ellipse;whiteSpace=wrap;html=1;" vertex="1" parent="1">
          <mxGeometry x="330" y="110" width="140" height="70" as="geometry" />
        </mxCell>
        <mxCell id="l32DUwEVO_m3kCCiZF5s-5" value="Request rental car" style="ellipse;whiteSpace=wrap;html=1;" vertex="1" parent="1">
          <mxGeometry x="330" y="210" width="140" height="70" as="geometry" />
        </mxCell>
        <mxCell id="l32DUwEVO_m3kCCiZF5s-6" value="Change rental request" style="ellipse;whiteSpace=wrap;html=1;" vertex="1" parent="1">
          <mxGeometry x="330" y="320" width="140" height="70" as="geometry" />
        </mxCell>
        <mxCell id="l32DUwEVO_m3kCCiZF5s-25" value="" style="edgeStyle=orthogonalEdgeStyle;rounded=0;orthogonalLoop=1;jettySize=auto;html=1;" edge="1" parent="1" source="l32DUwEVO_m3kCCiZF5s-10" target="l32DUwEVO_m3kCCiZF5s-11">
          <mxGeometry relative="1" as="geometry" />
        </mxCell>
        <mxCell id="l32DUwEVO_m3kCCiZF5s-10" value="Bank" style="shape=umlActor;verticalLabelPosition=bottom;verticalAlign=top;html=1;outlineConnect=0;" vertex="1" parent="1">
          <mxGeometry x="800" y="95" width="30" height="60" as="geometry" />
        </mxCell>
        <mxCell id="l32DUwEVO_m3kCCiZF5s-11" value="Analyse rental request" style="ellipse;whiteSpace=wrap;html=1;" vertex="1" parent="1">
          <mxGeometry x="570" y="90" width="140" height="70" as="geometry" />
        </mxCell>
        <mxCell id="l32DUwEVO_m3kCCiZF5s-12" value="&amp;lt;&amp;lt;includes&amp;gt;&amp;gt;" style="endArrow=open;endSize=12;dashed=1;html=1;rounded=0;exitX=1;exitY=0.5;exitDx=0;exitDy=0;entryX=0.007;entryY=0.643;entryDx=0;entryDy=0;entryPerimeter=0;" edge="1" parent="1" source="l32DUwEVO_m3kCCiZF5s-5" target="l32DUwEVO_m3kCCiZF5s-11">
          <mxGeometry width="160" relative="1" as="geometry">
            <mxPoint x="320" y="380" as="sourcePoint" />
            <mxPoint x="480" y="380" as="targetPoint" />
          </mxGeometry>
        </mxCell>
        <mxCell id="l32DUwEVO_m3kCCiZF5s-31" value="" style="edgeStyle=orthogonalEdgeStyle;rounded=0;orthogonalLoop=1;jettySize=auto;html=1;" edge="1" parent="1" source="l32DUwEVO_m3kCCiZF5s-29" target="l32DUwEVO_m3kCCiZF5s-30">
          <mxGeometry relative="1" as="geometry" />
        </mxCell>
        <mxCell id="l32DUwEVO_m3kCCiZF5s-29" value="&lt;div&gt;&lt;br&gt;&lt;/div&gt;&lt;div&gt;Agency&lt;/div&gt;" style="shape=umlActor;verticalLabelPosition=bottom;verticalAlign=top;html=1;outlineConnect=0;" vertex="1" parent="1">
          <mxGeometry x="800" y="315" width="30" height="60" as="geometry" />
        </mxCell>
        <mxCell id="l32DUwEVO_m3kCCiZF5s-30" value="Menage rental cars" style="ellipse;whiteSpace=wrap;html=1;" vertex="1" parent="1">
          <mxGeometry x="570" y="310" width="140" height="70" as="geometry" />
        </mxCell>
        <mxCell id="l32DUwEVO_m3kCCiZF5s-33" value="&amp;lt;&amp;lt;extends&amp;gt;&amp;gt;" style="endArrow=open;endSize=12;dashed=1;html=1;rounded=0;exitX=0.436;exitY=1.014;exitDx=0;exitDy=0;entryX=0.457;entryY=0.029;entryDx=0;entryDy=0;entryPerimeter=0;exitPerimeter=0;" edge="1" parent="1" source="l32DUwEVO_m3kCCiZF5s-11" target="l32DUwEVO_m3kCCiZF5s-30">
          <mxGeometry width="160" relative="1" as="geometry">
            <mxPoint x="480" y="255" as="sourcePoint" />
            <mxPoint x="581" y="145" as="targetPoint" />
          </mxGeometry>
        </mxCell>
      </root>
    </mxGraphModel>
  </diagram>
</mxfile>
